<svg xmlns="http://www.w3.org/2000/svg" width="24" height="24" viewBox="0 0 24 24"><path fill="#FFFFFF" d="M12.22 2C7.207 2 3 6.207 3 11.22c0 5.012 4.207 9.22 9.22 9.22 5.012 0 9.22-4.207 9.22-9.22C21.44 6.207 17.233 2 12.22 2zm-3.44 9.22a3.44 3.44 0 1 0 0 6.88 3.44 3.44 0 0 0 0-6.88zm9.88-1.72c0-.22-.06-.44-.2-.66L16 6.14l-.94 2.72-2.72.94 2.72.94.94 2.72 1.72-2.72.94-2.72-2.72-.94zM5.6 3.08L4.88 2.36 3.6 3.64l.72.72 1.28-1.28zm2.4 5.2L7.08 8.48 5.8 9.76l.72.72 1.28-1.28zM2.36 6.16L1.64 5.44 0 7.08l.72.72 1.64-1.64zm4.24 4.24L6.08 10.48 4.8 11.76l.72.72 1.28-1.28z"/></svg>